<svg xmlns="http://www.w3.org/2000/svg" viewBox="0 0 64 64" role="img" aria-label="Bilibili Media Ingestion Service">
  <defs>
    <linearGradient id="bg" x1="8" y1="6" x2="56" y2="58" gradientUnits="userSpaceOnUse">
      <stop offset="0" stop-color="#10b981"/>
      <stop offset="1" stop-color="#0ea5e9"/>
    </linearGradient>
  </defs>
  <rect x="8" y="8" width="48" height="48" rx="14" fill="url(#bg)"/>
  <path d="M24 21h11c5.5 0 9 3.1 9 7.8 0 3-1.5 5.3-4.3 6.5 3.3 1.1 5.3 3.8 5.3 7.2 0 5.2-3.9 8.5-10.1 8.5H24V21zm9.7 11.3c2.7 0 4.3-1.2 4.3-3.4s-1.6-3.4-4.3-3.4H30v6.8h3.7zm.7 13.1c3.1 0 4.9-1.4 4.9-3.9 0-2.6-1.9-4-5.1-4H30v7.9h4.4z" fill="#f8fafc"/>
  <rect x="17" y="15" width="6" height="3" rx="1.5" fill="#f8fafc"/>
  <rect x="41" y="15" width="6" height="3" rx="1.5" fill="#f8fafc"/>
</svg>
